<?xml version="1.0" encoding="UTF-8"?>
<svg id="back" xmlns="http://www.w3.org/2000/svg" version="1.1" viewBox="0 0 787.28 541.89">
  <!-- Generator: Adobe Illustrator 30.1.0, SVG Export Plug-In . SVG Version: 2.1.1 Build 136)  -->
  <defs>
    <style>
      .st0 {
        fill: #fff;
      }
    </style>
  </defs>
  <path class="st0" d="M132.19,513.53h73.72c22.09,0,40-17.91,40-40V68.47c0-22.09-17.91-40-40-40h-40.72c-22.09,0-40,17.91-40,40l-33,405.07c0,22.09,17.91,40,40,40Z"/>
  <path class="st0" d="M655.81,513.53h-73.72c-22.09,0-40-17.91-40-40V68.47c0-22.09,17.91-40,40-40h40.72c22.09,0,40,17.91,40,40l33,405.07c0,22.09-17.91,40-40,40Z"/>
</svg>