<?xml version="1.0" encoding="UTF-8"?>
<svg id="front" xmlns="http://www.w3.org/2000/svg" version="1.1" viewBox="0 0 787.28 541.89">
  <!-- Generator: Adobe Illustrator 30.1.0, SVG Export Plug-In . SVG Version: 2.1.1 Build 136)  -->
  <defs>
    <style>
      .st0 {
        fill: #fff;
      }
    </style>
  </defs>
  <path class="st0" d="M362.34,267.26l-294.75,115.14c-7.17,2.89-15.33-.59-18.21-7.77l-18.49-45.97c-2.89-7.17.59-15.33,7.77-18.21l294.75-115.14c7.17-2.89,15.33.59,18.21,7.77l18.49,45.97c2.89,7.17-.59,15.33-7.77,18.21Z"/>
  <path class="st0" d="M425.66,267.26l294.75,115.14c7.17,2.89,15.33-.59,18.21-7.77l18.49-45.97c2.89-7.17-.59-15.33-7.77-18.21l-294.75-115.14c-7.17-2.89-15.33.59-18.21,7.77l-18.49,45.97c-2.89,7.17.59,15.33,7.77,18.21Z"/>
</svg>