<?xml version="1.0" encoding="UTF-8"?>
<svg id="middle" xmlns="http://www.w3.org/2000/svg" version="1.1" viewBox="0 0 787.28 541.89">
  <!-- Generator: Adobe Illustrator 30.1.0, SVG Export Plug-In . SVG Version: 2.1.1 Build 136)  -->
  <defs>
    <style>
      .st0 {
        fill: #fff;
      }
    </style>
  </defs>
  <path class="st0" d="M204.79,487.69h-70.9c-8.28,0-15-6.72-15-15l31-402.6c0-8.28,6.72-15,15-15h39.9c8.28,0,15,6.72,15,15v402.6c0,8.28-6.72,15-15,15Z"/>
  <path class="st0" d="M583.21,487.69h70.9c8.28,0,15-6.72,15-15l-31-402.6c0-8.28-6.72-15-15-15h-39.9c-8.28,0-15,6.72-15,15v402.6c0,8.28,6.72,15,15,15Z"/>
</svg>